/* XPM */
static char * bar1_xpm[] = {
"20 20 34 1",
" 	c None",
".	c #136F20",
"+	c #137120",
"@	c #165920",
"#	c #19421F",
"$	c #18411E",
"%	c #18441E",
"&	c #17431E",
"*	c #19451F",
"=	c #1C321F",
"-	c #1C311F",
";	c #1B301E",
">	c #1F1F1F",
",	c #212121",
"'	c #202020",
")	c #1D1D1D",
"!	c #1E1E1E",
"~	c #1C1C1C",
"{	c #151515",
"]	c #131313",
"^	c #141414",
"/	c #101010",
"(	c #111111",
"_	c #0F0F0F",
":	c #0D0D0D",
"<	c #050505",
"[	c #040404",
"}	c #020202",
"|	c #000000",
"1	c #000400",
"2	c #001202",
"3	c #001402",
"4	c #003507",
"5	c #004A0A",
".+..................",
"@@@@@@@@@@@@@@@@@@@@",
"#######$%%%%%%&&&%**",
"========--;;;;;;;;;-",
">>>>>>>>>>>>>>>>>>>>",
",,,,,,,,,,,,,,,,,,''",
"))))))))!'''''''!)~~",
"{{{{{{{{{{{{{{{{{{{{",
"]]]^]]]]]]]]]]]]]^^^",
"///////(((((((((((//",
"____________________",
"////////////////___:",
"<<<<<<<<<<<<<<<<[[[[",
"}}}}}}}}}}}}}}}}}}}}",
"||||||||||||||||||||",
"11111111111111111111",
"22222222222222222222",
"33333333333333333333",
"44444444444444444444",
"55555555555555555555"};
