/* XPM */
static char * close1_xpm[] = {
"20 20 67 1",
" 	c None",
".	c #137020",
"+	c #127220",
"@	c #147220",
"#	c #147020",
"$	c #147021",
"%	c #246C2E",
"&	c #296B32",
"*	c #0C9920",
"=	c #339825",
"-	c #306A37",
";	c #2F6A37",
">	c #2D6A35",
",	c #306A38",
"'	c #36673D",
")	c #38673E",
"!	c #396640",
"~	c #08BB21",
"{	c #49B02B",
"]	c #1F1F1F",
"^	c #00FF24",
"/	c #7BEA38",
"(	c #212121",
"_	c #1D1D1D",
":	c #151515",
"<	c #131313",
"[	c #141414",
"}	c #101010",
"|	c #0F0F0F",
"1	c #050505",
"2	c #020202",
"3	c #000000",
"4	c #00FD23",
"5	c #000400",
"6	c #00F121",
"7	c #00FB21",
"8	c #00F621",
"9	c #00FC22",
"0	c #00FE23",
"a	c #01E420",
"b	c #72E036",
"c	c #00F922",
"d	c #113917",
"e	c #113A17",
"f	c #113B17",
"g	c #07BA20",
"h	c #4CB52B",
"i	c #113D17",
"j	c #07B720",
"k	c #47AE2B",
"l	c #113E17",
"m	c #0F4716",
"n	c #0F4516",
"o	c #0F4416",
"p	c #09A61F",
"q	c #3EA428",
"r	c #0F4617",
"s	c #0F4417",
"t	c #0AA720",
"u	c #3DA228",
"v	c #0F4517",
"w	c #12701F",
"x	c #127520",
"y	c #167520",
"z	c #126C1E",
"A	c #126E1F",
"B	c #137120",
".......+@..#$$$$....",
"%%%%%%&*=-;---->--,,",
"')!!!!!~{!!!!!!!!!!!",
"]]]]]]]^/]]]]]]]]]]]",
"(((((((^/((((//(((((",
"_______^/___/^^/____",
":::::::^/::/^::^/:::",
"<<<[<<[<^//^<[^/<[<[",
"}}}}}}}}}^^}}^/}}}}}",
"||||||||||||^/||||||",
"}}}}}}}}}}}}^/}}}}}}",
"111111111^^11^/11111",
"22222223^//^23^/2311",
"3333333^/23/^234/232",
"55553^^/2323/678/123",
"33339//232323//0/332",
"5555ab232232323c/223",
"deefgheffffffiijklll",
"mnoopqnrrrrrrrstuvvv",
"wwwwxyzzzzAwwww+Bwww"};
