/* XPM */
static char * close2a_xpm[] = {
"20 20 68 1",
" 	c None",
".	c #136A20",
"+	c #1B4820",
"@	c #1B4721",
"#	c #1B4621",
"$	c #1E3E22",
"%	c #1E3D22",
"&	c #1E3C22",
"*	c #203623",
"=	c #252525",
"-	c #7BEA38",
";	c #156D24",
">	c #77EA37",
",	c #175E24",
"'	c #195B24",
")	c #000000",
"!	c #00710E",
"~	c #00FF24",
"{	c #006D0D",
"]	c #75EA37",
"^	c #006F0D",
"/	c #004608",
"(	c #000500",
"_	c #006E0C",
":	c #00620C",
"<	c #005F0B",
"[	c #005B0B",
"}	c #6FEA34",
"|	c #000100",
"1	c #006D0C",
"2	c #004C07",
"3	c #005508",
"4	c #78EA37",
"5	c #006C0D",
"6	c #004908",
"7	c #00630C",
"8	c #6BEA30",
"9	c #00590B",
"0	c #00560A",
"a	c #00570A",
"b	c #005108",
"c	c #67D32B",
"d	c #003D0B",
"e	c #004807",
"f	c #004E08",
"g	c #62CA2B",
"h	c #010A03",
"i	c #70DD35",
"j	c #010702",
"k	c #000401",
"l	c #76E537",
"m	c #021104",
"n	c #021205",
"o	c #021105",
"p	c #031305",
"q	c #041E08",
"r	c #041C07",
"s	c #041D07",
"t	c #041F07",
"u	c #041D08",
"v	c #062B0B",
"w	c #052A0B",
"x	c #062B0C",
"y	c #06290B",
"z	c #062A0B",
"A	c #10631C",
"B	c #11671D",
"C	c #126A1E",
"....................",
"+++++++++++++++@@@##",
"$$$$$$$$%%%%%%%%&&&&",
"********************",
"=====--======--=====",
"====-;;-====>,'-====",
")))-!~~{]==-^~~/()))",
"))))]_~~:--<~~[}|)))",
")))))-1~~22~~[-)))))",
"))))))-3~~~~2-))))))",
"))))))-3~~~~2-))))))",
")))))45~~66~~[-)))))",
"))))-7~~6889~~0-))))",
")))-a~~[}))}a~~bc)))",
"))))-de-))))-ffg))))",
"hhhhhiijjjjjkllkkkkk",
"mmmmmmmnnmmmonpnnnnn",
"qqrrrrrrrssstsussssr",
"vwxxyyyyyyzzzzzzzzzv",
"AAAAAAABCCCCCCCCCCCC"};
