/* XPM */
static char * max1_xpm[] = {
"20 20 54 1",
" 	c None",
".	c #136E20",
"+	c #126F20",
"@	c #136F20",
"#	c #236B2D",
"$	c #236B2E",
"%	c #246B2E",
"&	c #216B2B",
"*	c #0E8A20",
"=	c #268623",
"-	c #1F6C2A",
";	c #38653E",
">	c #09B621",
",	c #45AA2B",
"'	c #37653D",
")	c #1F1F1F",
"!	c #06CB22",
"~	c #58C12F",
"{	c #212121",
"]	c #00FA23",
"^	c #77E637",
"/	c #7BEA38",
"(	c #1D1D1D",
"_	c #00FF24",
":	c #151515",
"<	c #131313",
"[	c #141414",
"}	c #101010",
"|	c #0F0F0F",
"1	c #050505",
"2	c #020202",
"3	c #000000",
"4	c #000400",
"5	c #00FA21",
"6	c #03E220",
"7	c #69D433",
"8	c #113015",
"9	c #05CB20",
"0	c #55BE2E",
"a	c #113115",
"b	c #113215",
"c	c #115B1B",
"d	c #11581B",
"e	c #10541A",
"f	c #0D9320",
"g	c #2E8F26",
"h	c #10551A",
"i	c #104E18",
"j	c #104C18",
"k	c #104A18",
"l	c #126B1F",
"m	c #126C1F",
"n	c #127120",
"o	c #147120",
".........+@.........",
"##$$%&&&&*=&&&&&&&-&",
";;;;;;;;;>,'''''''''",
")))))))))!~)))))))))",
"{{{{{{{{{]^^^^/{{{{{",
"(((((((((______/((((",
"::::::::::::::_/::::",
"<<[[[[[[[[[[[[_/[[[[",
"}}}}}}}}}}}}}}_/}}}}",
"||}}}}}|||||||_/||||",
"}}|||||}}}}}_}_/}}}}",
"11111111111_/__/1111",
"2222222222_/2//22222",
"333333333_/333333333",
"44444444_/4444444444",
"33333335/33333333333",
"44444446744444444444",
"888888890aaaaaaaab88",
"cdddddefgeeehiijkkkk",
"lmllllmnommmmmmmmmmm"};
