/* XPM */
static char * max2a_xpm[] = {
"20 20 31 1",
" 	c None",
".	c #136C20",
"+	c #126A1F",
"@	c #1A5121",
"#	c #0B4213",
"$	c #1D4122",
"%	c #1D4222",
"&	c #062B0D",
"*	c #223024",
"=	c #213124",
"-	c #213224",
";	c #031205",
">	c #252525",
",	c #000000",
"'	c #00FF24",
")	c #7BEA38",
"!	c #0C1605",
"~	c #020C03",
"{	c #020F04",
"]	c #06250A",
"^	c #06260A",
"/	c #05250A",
"(	c #06280B",
"_	c #072B0C",
":	c #08350E",
"<	c #08340E",
"[	c #07320D",
"}	c #126B1F",
"|	c #126B1E",
"1	c #126A1E",
"2	c #12691E",
".........+..........",
"@@@@@@@@@#@@@@@@@@@@",
"$%$$$$$$$&$$$$$$$$$$",
"**=-=====;==========",
">>>>>>>>>,>>>>>>>>>>",
">>>>>>>>>>>>>>>>>>>>",
",,,,,,,>,''''',,,,,,",
",,,,,,,,),''''),,,,,",
",,,,,,,),'''''),,,,,",
",,,,,,),''''''),,,,,",
",,,,,),''''')'),,,,,",
",,,,),''''')!),,,,,,",
",,,),''''')!,,,,,,,,",
",,,,),'''),,,,,,,,,,",
",,,,,),'),,,,,,,,,,,",
",,,,,,),),,,,,,,,,,,",
"~~~~~~~~~~~~{{{{{{{{",
"]]]^^^^^^^^^//////(_",
":::<<<<<<<<<<<<<<<<[",
"}}||||||||||||||||12"};
