/* XPM */
static char * min1_xpm[] = {
"20 20 66 1",
" 	c None",
".	c #146E21",
"+	c #136E20",
"@	c #127020",
"#	c #147020",
"$	c #126F20",
"%	c #136F20",
"&	c #1F6C2A",
"*	c #206B2A",
"=	c #1F6B2A",
"-	c #1F6B29",
";	c #1E6B29",
">	c #0F8520",
",	c #228223",
"'	c #1C6B27",
")	c #1B6B27",
"!	c #0F8020",
"~	c #1E7E22",
"{	c #1E6B28",
"]	c #226B2C",
"^	c #326639",
"/	c #2B6834",
"(	c #2B6833",
"_	c #0C9E20",
":	c #359626",
"<	c #296832",
"[	c #286831",
"}	c #276831",
"|	c #0C9A20",
"1	c #349626",
"2	c #2A6833",
"3	c #1F1F1F",
"4	c #03E123",
"5	c #65D033",
"6	c #00FF24",
"7	c #7BEA38",
"8	c #212121",
"9	c #1D1D1D",
"0	c #151515",
"a	c #131313",
"b	c #141414",
"c	c #101010",
"d	c #0F0F0F",
"e	c #2B2B2B",
"f	c #050505",
"g	c #020202",
"h	c #00FC23",
"i	c #78E737",
"j	c #000000",
"k	c #00F120",
"l	c #03E623",
"m	c #69D433",
"n	c #03DD21",
"o	c #07C421",
"p	c #51B72E",
"q	c #113616",
"r	c #07C321",
"s	c #113516",
"t	c #0AAF21",
"u	c #41A52A",
"v	c #0F4217",
"w	c #0AAC20",
"x	c #126D1F",
"y	c #126C1F",
"z	c #127120",
"A	c #157120",
"........+@#+++$%++..",
"&&&&&*=-;>,;')!~){]]",
"^^^^^/((_:<<[}|12///",
"33444444533333453333",
"36777777333333673333",
"67333333333333367333",
"67888888888888886788",
"67999999999999999679",
"67000000000000006700",
"67aaabbaaabbbbb67bbb",
"67cccccccccccc67bbbb",
"67ddddddddddd67ddddd",
"67cccccccccc67eccccc",
"67fffffffffff67fffff",
"67gggggg6666667fffff",
"hijjjjjkiiiiiiffffff",
"lmjjjjjnmggggggggggg",
"opqqqqqrpsssssssssss",
"tuvvvvvwuvvvvvvvvvvv",
"@#xxxxyzAyyyyyyyyyyy"};
