/* XPM */
static char * min2_xpm[] = {
"20 20 50 1",
" 	c None",
".	c #666666",
"+	c #000000",
"@	c #8A8A8A",
"#	c #808080",
"$	c #626262",
"%	c #8D8D8D",
"&	c #878787",
"*	c #5D5D5D",
"=	c #8E8E8E",
"-	c #585858",
";	c #8C8C8C",
">	c #868686",
",	c #535353",
"'	c #848484",
")	c #4E4E4E",
"!	c #828282",
"~	c #494949",
"{	c #444444",
"]	c #7E7E7E",
"^	c #3F3F3F",
"/	c #7D7D7D",
"(	c #767676",
"_	c #3A3A3A",
":	c #7B7B7B",
"<	c #6F6F6F",
"[	c #353535",
"}	c #797979",
"|	c #676767",
"1	c #303030",
"2	c #616161",
"3	c #2B2B2B",
"4	c #757575",
"5	c #5A5A5A",
"6	c #252525",
"7	c #737373",
"8	c #545454",
"9	c #202020",
"0	c #4D4D4D",
"a	c #1C1C1C",
"b	c #4A4A4A",
"c	c #161616",
"d	c #575757",
"e	c #4B4B4B",
"f	c #111111",
"g	c #5C5C5C",
"h	c #0C0C0C",
"i	c #525252",
"j	c #070707",
"k	c #787878",
".........+@...+#....",
"$$$$$$$$$+%$$$+&$$$$",
"********+=****+&****",
"--++++++;-----+>----",
",+@@@@@@,,,,,,+',,,,",
"+>)))))))))))))+!)))",
"+'~~~~~~~~~~~~~~+#~~",
"+#{{{{{{{{{{{{{{{+]{",
"+]^^^^^^^^^^^^^^+/^^",
"+(_____________+:___",
"+<[[[[[[[[[[[[+}[[[[",
"+|11111111111+(11111",
"+23333333333+4333333",
"+566666666666+766666",
"+8999999++++++$99999",
"+0aaaaa+------aaaaaa",
"+bccccc+dccccccccccc",
"+efffff+gfffffffffff",
"+~hhhhh+2hhhhhhhhhhh",
"+ijjjjj+kjjjjjjjjjjj"};
