/* XPM */
static char * min2a_xpm[] = {
"20 20 24 1",
" 	c None",
".	c #136F20",
"+	c #0E5618",
"@	c #175E21",
"#	c #0E571B",
"$	c #0D4C15",
"%	c #0B4012",
"&	c #1A4F22",
"*	c #08300E",
"=	c #1D4522",
"-	c #000000",
";	c #252525",
">	c #7BEA38",
",	c #00FF24",
"'	c #000401",
")	c #242724",
"!	c #031305",
"~	c #213124",
"{	c #031405",
"]	c #052009",
"^	c #1F3A22",
"/	c #041E08",
"(	c #0A3D11",
"_	c #12691E",
"....................",
"++++++++++@@@@#@@@@@",
"$%%%%%%%%&&&&&%&&&&&",
"%*******======*=====",
"--;;;;;;;;;;;;->;;;;",
"-;;;;;;;;;;;>-,->;;;",
"-;--------->-,,,->--",
"-;-------->-,,,,,->-",
"-;----->->-,,,,,->--",
"-;------,-,,,,,->---",
"-;------,,,,,,->----",
"-;------,,,,,->-----",
"-;------,,,,->------",
"-;------,,,,,-------",
"-;----->------------",
"')''''''''''''''''''",
"!~!!!!{{!{{{{{{{{{{{",
"]^]]]]//]///////////",
"((((((((((((((((((((",
"____________________"};
