/* XPM */
static char * stick2a_xpm[] = {
"20 20 36 1",
" 	c None",
".	c #004F08",
"+	c #025308",
"@	c #004E07",
"#	c #07470E",
"$	c #197011",
"%	c #003F06",
"&	c #0E3D13",
"*	c #318E1B",
"=	c #002E04",
"-	c #1B301D",
";	c #5AC02B",
">	c #5AC12B",
",	c #001502",
"'	c #232723",
")	c #74E235",
"!	c #222822",
"~	c #212822",
"{	c #72DF34",
"]	c #000500",
"^	c #252525",
"/	c #7BEA38",
"(	c #00FF24",
"_	c #000000",
":	c #000D01",
"<	c #000F01",
"[	c #000C00",
"}	c #66D02F",
"|	c #00E11E",
"1	c #001D02",
"2	c #001C02",
"3	c #4CAF25",
"4	c #002F04",
"5	c #003C06",
"6	c #1D7413",
"7	c #005108",
"......+...+@@@@@@@@@",
"######$###$%%%%%%%%%",
"&&&&&&*&&&&*========",
"------;-----;>>>>>,,",
"'''''')''''''!!!~!{]",
"^^^^^^/////^^^^^^^^/",
"^^^^^^/((((/^^^^^^^/",
"______/(((((/______/",
"______/((((((/_____/",
"______/(((((((/____/",
"______/((((((((/___/",
"______/((((((((/___/",
"______/((((((((/___/",
"_______/(((((((/___/",
"________/((((((/___/",
":<[[[[[[[}||||}[[[[}",
"12111111133333111113",
"444444444*444444444*",
"55555555565555555556",
"@@@@@@@@@7@@@@@@@@@7"};
