/* XPM */
static char * stick2_xpm[] = {
"20 20 46 1",
" 	c None",
".	c #014E09",
"+	c #004E08",
"@	c #005608",
"#	c #004C07",
"$	c #0D3E13",
"%	c #0E3D13",
"&	c #009812",
"*	c #002E03",
"=	c #0D3C12",
"-	c #0D3C13",
";	c #009612",
">	c #0C3E12",
",	c #0C3F11",
"'	c #008F11",
")	c #003104",
"!	c #143618",
"~	c #00B517",
"{	c #002002",
"]	c #212822",
"^	c #00F021",
"/	c #000500",
"(	c #252525",
"_	c #00FF24",
":	c #000000",
"<	c #000900",
"[	c #000B00",
"}	c #000D00",
"|	c #00DE1E",
"1	c #00E21E",
"2	c #001C02",
"3	c #001B02",
"4	c #001A02",
"5	c #00C21A",
"6	c #00C019",
"7	c #002D03",
"8	c #002C03",
"9	c #009C13",
"0	c #002B03",
"a	c #009D14",
"b	c #003204",
"c	c #008D11",
"d	c #004B07",
"e	c #005C09",
"f	c #004A07",
"g	c #005B08",
".+++++@+++@#########",
"$%%%%%&%%%&*********",
"=-----;>,,,'))))))))",
"!!!!!!~!!!!!~~~~~~{{",
"]]]]]]^]]]]]]]]]]]^/",
"((((((_____((((((((_",
"((((((_((((_(((((((_",
"::::::_:::::_::::::_",
"::::::_::::::_:::::_",
"::::::_:::::::_::::_",
"::::::_::::::::_:::_",
"::::::_::::::::_:::_",
"::::::_::::::::_:::_",
":::::::_:::::::_:::_",
"::::::::_::::::_:::_",
"<[}}}}}}}|}}}}|}}}}1",
"23444444455555444446",
"7**7788889887000000a",
")))))bbbb'bbbbbbbbbc",
"dddddddddefffdfffffg"};
