/* XPM */
static char * stick1_xpm[] = {
"20 20 81 1",
" 	c None",
".	c #14681F",
"+	c #146820",
"@	c #12681E",
"#	c #12691E",
"$	c #11691E",
"%	c #2A6632",
"&	c #296631",
"*	c #286630",
"=	c #276630",
"-	c #2E8B24",
";	c #0C901E",
">	c #296630",
",	c #308E24",
"'	c #0B931E",
")	c #33633A",
"!	c #336339",
"~	c #326339",
"{	c #3FA129",
"]	c #09AB20",
"^	c #32633A",
"/	c #40A328",
"(	c #08AD20",
"_	c #34633A",
":	c #34623A",
"<	c #36623B",
"[	c #37623C",
"}	c #1F1F1F",
"|	c #63CD31",
"1	c #03DB22",
"2	c #65D032",
"3	c #03E022",
"4	c #212121",
"5	c #7BEA38",
"6	c #00FF24",
"7	c #74E136",
"8	c #01F023",
"9	c #1D1D1D",
"0	c #151515",
"a	c #131313",
"b	c #141414",
"c	c #101010",
"d	c #0F0F0F",
"e	c #050505",
"f	c #020202",
"g	c #000000",
"h	c #000400",
"i	c #76E336",
"j	c #00F422",
"k	c #00F723",
"l	c #72DF35",
"m	c #01F223",
"n	c #58BE2F",
"o	c #04C61E",
"p	c #04C21E",
"q	c #04CA1E",
"r	c #04CA20",
"s	c #51B72D",
"t	c #06C420",
"u	c #113A16",
"v	c #113B16",
"w	c #113D17",
"x	c #43A72A",
"y	c #08AB1E",
"z	c #41A328",
"A	c #40A228",
"B	c #114017",
"C	c #114117",
"D	c #40A229",
"E	c #08AC20",
"F	c #0F4316",
"G	c #0F4416",
"H	c #399A27",
"I	c #0A9E1E",
"J	c #0F4616",
"K	c #0F4816",
"L	c #0F4817",
"M	c #369526",
"N	c #0A9D1F",
"O	c #11661D",
"P	c #11681D",
".++.@#$@@#$@@@@@@@@@",
"%&*=*-;&>,'&&&&%%%%%",
")!~~~{]^))/(____::<[",
"}}}}}|1}}}}2333333}}",
"44444564444477777784",
"99999566666999999956",
"00000565555600000056",
"aaabb56aaab56bbbbb56",
"ccccc56ccccc56cccc56",
"ddddd56dddddd56ddd56",
"ccccc56ccccccc56cc56",
"eeeee56eeeeeee56ff56",
"fffff56fffffff56gg56",
"gggggg56eeeeee56hh56",
"hhhhhhh56fffff56gg56",
"ggggggggijeeeekihhlm",
"hhhhhhhhnopoqrnhhhst",
"uuuvwwwwxyxxzABCCBDE",
"FGGGGGGGHIGGJKLLLLMN",
"OPPPPPPP#$PPPPPPPP#$"};
